<?xml version="1.0" encoding="UTF-8"?>
<svg id="Layer_2" data-name="Layer 2" xmlns="http://www.w3.org/2000/svg" viewBox="0 0 29.79 31.14">
  <defs>
    <style>
      .cls-1 {
        fill: none;
        stroke: #f6f0e7;
        stroke-linecap: round;
        stroke-linejoin: round;
        stroke-width: 1.5px;
      }
    </style>
  </defs>
  <g id="Layer_1-2" data-name="Layer 1">
    <g id="Home_button" data-name="Home button">
      <path id="Path_248" data-name="Path 248" class="cls-1" d="M2.24,9.71C6.19,6.93,10.17,4.19,14.19,1.51c.95-.99,2.53-1.02,3.52-.07,.06,.05,.11,.11,.16,.17l9.57,7.41c1.12,.59,1.74,1.83,1.56,3.08l-.12,13.97c.43,1.47-.41,3.01-1.88,3.44-.39,.12-.81,.14-1.22,.08-7.03,.38-14.06,.64-21.1,.76-.76,.1-1.54-.07-2.2-.46-.61-.62-.96-1.45-.98-2.32-.76-5.59-.95-11.24-.57-16.87"/>
      <path id="Path_249" data-name="Path 249" class="cls-1" d="M19.91,28.24c.45-4.46,.78-9.04-.36-13.38-.03-.17-.11-.33-.23-.46-.15-.1-.32-.15-.5-.14-2.13-.16-4.27-.14-6.4,.08-.28,.01-.56,.07-.82,.18-.74,.36-.93,1.31-1.02,2.14-.44,4.12-.59,8.27-.46,12.41"/>
    </g>
  </g>
</svg>