<?xml version="1.0" encoding="UTF-8"?>
<svg id="Layer_2" data-name="Layer 2" xmlns="http://www.w3.org/2000/svg" viewBox="0 0 32.85 31.12">
  <defs>
    <style>
      .cls-1 {
        fill: none;
        stroke: #f6f0e7;
        stroke-linecap: round;
        stroke-linejoin: round;
        stroke-width: 1.5px;
      }
    </style>
  </defs>
  <g id="Layer_1-2" data-name="Layer 1">
    <g id="User_button" data-name="User button">
      <path id="Path_250" data-name="Path 250" class="cls-1" d="M17.08,15.61c1.9-.03,3.75-.58,5.36-1.6,.81-.45,1.52-1.06,2.07-1.81,.27-.42,.48-.88,.61-1.36,.58-1.76,.49-3.67-.26-5.36-.85-1.62-2.22-2.91-3.89-3.64-.98-.47-2.03-.79-3.11-.95-2.12-.37-4.31,.04-6.16,1.15-1.85,1.15-2.99,3.15-3.03,5.33,.05,.97,.25,1.92,.59,2.82,.39,1.52,1.2,2.9,2.34,3.98,1.6,1.3,3.82,1.41,5.88,1.45"/>
      <path id="Path_251" data-name="Path 251" class="cls-1" d="M13.03,19.05c-.53-.11-1.06-.15-1.6-.12-2.58,.04-5.35,.13-7.41,1.68-1.24,1.01-2.18,2.34-2.73,3.85-.6,1.47-.9,3.36,.23,4.48,.65,.55,1.46,.88,2.31,.95,1.83,.27,3.67,.4,5.51,.41,3.65,.08,7.3,.07,10.95,.07,3.47,0,6.95,0,10.42-.12,.28,.02,.57-.05,.81-.2,.24-.25,.37-.59,.37-.94,.23-2.02,.45-4.17-.44-5.99-1.26-2.58-4.33-3.71-7.18-4.09-1.11-.21-2.25-.15-3.33,.17-.67,.25-1.27,.67-1.95,.88-.65,.18-1.33,.24-2.01,.18-1.55-.07-2.49-.7-3.96-1.21"/>
    </g>
  </g>
</svg>